<?xml version="1.0" encoding="UTF-8"?>
<svg id="Layer_1" xmlns="http://www.w3.org/2000/svg" width="1.1728529in" height="1.1576224in" version="1.1" xmlns:i="http://ns.adobe.com/AdobeIllustrator/10.0/" viewBox="0 0 84.4454122 83.3488139">
  <!-- Generator: Adobe Illustrator 29.6.0, SVG Export Plug-In . SVG Version: 2.1.1 Build 207)  -->
  <path d="M39.2436041,11.7374203c2.788321-2.1702291,6.2965583-.368116,8.6429257,1.627642,2.457481,1.8782134,5.016191,4.0059263,7.2625174,6.1813955l.4082503.2343747c6.2203387,5.7708824,11.9970565,12.1848663,16.7432639,18.9669661.7693398,1.179972,1.4491218,2.5167893,1.0200303,4.0834558-1.5834585,3.9559073-4.7986082,7.1100816-7.6107477,10.5642507-6.0831437,6.5477251-12.4995063,12.8838222-19.6835445,17.9383611-1.453171,1.0280095-3.4128439,1.9770605-5.1538623,1.160679-5.2876036-2.7679561-9.7466783-7.3014638-14.3742693-11.4324376-5.3679913-4.977724-10.7550375-10.7719486-14.8232493-16.8335367-.604158-.8512757-.7745799-1.8997692-.7571924-3.0215048.5234131-2.0934142,1.9562192-3.8152587,3.312925-5.5790238,4.8073021-6.1255409,10.6951337-11.9365577,16.6409636-17.2440498.1373141-.1365995.3913391-.4256379.6059444-.5640238,2.5540653-2.207386,5.0911004-4.1624143,7.766045-6.0825484h0ZM47.417304,5.3628562l-3.156437-4.4734849c-.38729-.2366375-.8704497-.6263093-1.2972785-.7414721-.9316634-.4030102-1.9358543.0843177-2.6953095.6612035l-5.7133606,7.441517C25.3903661,19.600526,14.5411262,30.2002664,2.7040111,38.3245427c-.9357126.7309919-2.3271935,1.4444772-2.6162318,2.6499351-.3110705,1.0838641.2535487,1.9782514.9257088,2.6516024,9.4786002,6.5292657,18.5414473,14.2795905,26.6070109,23.118543,1.4322107,1.5048573,2.5928896,3.0005445,3.9931834,4.4123902,2.3591103,3.1401213,5.1312347,6.3035848,7.2996774,9.6716498.6791865.711818.7966121,1.8794043,1.8602304,2.2260836.8321018.2884429,1.8602304.4837552,2.6539842,0l.7897047-.7932775c9.8076508-13.8933723,22.245589-26.3701352,36.1424147-36.4441997,1.3916-1.2421385,4.0473705-1.7050524,4.0857184-4.01069-.0988471-1.0636183-.7175344-2.1109208-1.6310957-2.6929276l-.2279437-.0366806c-7.1514066-4.864824-13.8142943-10.3665566-20.0916785-16.6078558l-6.9373968-7.2468002c-2.8104692-3.1163027-5.5412683-6.5668991-8.1399935-9.8594592h0ZM40.2682791,13.4453309c2.8516784-1.9422854,5.4091974.7727935,7.6182508,2.3248116,8.5418159,6.8752305,16.602136,14.7441717,22.7428016,23.6307613.7751754,1.1473406,1.1247129,2.9278978.4302825,4.2251763-1.5927478,2.6563661-3.7402267,5.0801439-5.7765987,7.5410786v.1349322c-5.0783573,5.4056246-10.4409863,10.9624972-16.2368782,15.5401883-2.8278598,1.721249-5.4237268,5.4800577-9.0668962,3.1517924-8.2946982-6.0617072-16.2322369-13.5980221-22.962055-21.6809731-1.1403141-1.7771036-2.9220623-3.2332519-3.7152207-5.2486603-1.1078017-2.7290127,1.3339591-4.6876138,2.7313946-6.7426801,6.860582-8.4620236,15.3814375-16.7595801,24.2349194-22.8764272h0ZM42.0692012,19.0225684l-.7729126,2.4807041-3.8756387,11.1004067c.9704877.0988471,2.1718964,0,3.125592.0988471v.0912251l-.5670011,12.5559596.0976561.1325503c1.2397566.1209983,2.7877255.1837603,4.0508243-.0325123v-.1976941l-.505311-12.1785543.075624-.4122995,3.4098666-.0575218c-1.7008841-4.4933734-3.3505584-9.032002-4.9386616-13.5811109h-.100038ZM28.8794294,36.4159606c-2.1730873,1.0898187-5.3708495,2.7360392-5.0190492,5.7174097.4657722,1.627642,2.2283464,2.6789937,3.6228046,3.3488911,7.7091186,3.3960518,17.9430057,3.5124055,26.0824068.9769187,2.0090934-.7744608,4.7055937-1.8979828,5.075377-4.359513-.0220322-2.0341059-2.1742782-3.3145923-3.7216516-4.0932214v-.0959888c.5391333-.2140099,1.159488-.4046775,1.7183907-.4639858v-.0546636c-2.7267499-.4879234-5.3579844-1.2008132-7.9986303-1.8997692.5081692,1.1588926.8750943,2.3806661,1.2990649,3.5849331.7931584-.2535487,1.6072772-.4465982,2.4633166-.5628328,1.3926688.5413961,3.386045,1.3170479,3.5831436,3.0586618.1547016,1.6270466-1.6264511,2.4208004-2.7522328,3.0814085-5.969172,2.1724918-12.6861281,2.3842389-18.9124216.7327783-1.7194626-.5419916-4.2019532-1.2374938-4.4153676-3.4274923,1.2211781-2.8825234,4.3782106-3.4826323,7.0148073-4.1827792-1.3549194-.8728315-2.733181-1.6462205-4.0467752-2.6173037-1.4182768.0784822-2.7144834.698956-3.9931834,1.2565487h0ZM39.901354,48.9364305c-.2315165,4.4590746-.2884429,8.5854038-.6176155,13.0560305,1.7643606.1605372,3.7559504.3140479,5.6371411.0395388l-.5611655-12.4605662-.0988471-.5930824c-1.4334016.0558545-2.7895119.1139719-4.359513-.0419207h0Z" fill="#035b98"/>
</svg>